<svg xmlns="http://www.w3.org/2000/svg" version="1.1" style="display: none;">
    <defs>
        <symbol id="icon-collect" viewBox="0 0 1024 1024">
            <title>Collect</title>
            <path class="path1"
                  d="M810 470v-86h-170v-170h-86v170h-170v86h170v170h86v-170h170zM854 86q34 0 59 25t25 59v512q0 34-25 60t-59 26h-512q-34 0-60-26t-26-60v-512q0-34 26-59t60-25h512zM170 256v598h598v84h-598q-34 0-59-25t-25-59v-598h84z"/>
        </symbol>
        <symbol id="icon-info" viewBox="0 0 1024 1024">
            <title>Info</title>
            <path class="path1"
                  d="M470 384v-86h84v86h-84zM512 854q140 0 241-101t101-241-101-241-241-101-241 101-101 241 101 241 241 101zM512 86q176 0 301 125t125 301-125 301-301 125-301-125-125-301 125-301 301-125zM470 726v-256h84v256h-84z"/>
        </symbol>
        <symbol id="icon-collage" viewBox="0 0 24 24">
            <title>Collage</title>
            <path d="M12 3a9 9 0 0 0 0 18c.83 0 1.5-.67 1.5-1.5 0-.39-.15-.74-.39-1.01-.23-.26-.38-.61-.38-.99 0-.83.67-1.5 1.5-1.5H16c2.76 0 5-2.24 5-5 0-4.42-4.03-8-9-8zm-5.5 9c-.83 0-1.5-.67-1.5-1.5S5.67 9 6.5 9 8 9.67 8 10.5 7.33 12 6.5 12zm3-4C8.67 8 8 7.33 8 6.5S8.67 5 9.5 5s1.5.67 1.5 1.5S10.33 8 9.5 8zm5 0c-.83 0-1.5-.67-1.5-1.5S13.67 5 14.5 5s1.5.67 1.5 1.5S15.33 8 14.5 8zm3 4c-.83 0-1.5-.67-1.5-1.5S16.67 9 17.5 9s1.5.67 1.5 1.5-.67 1.5-1.5 1.5z"/>
            <path d="M0 0h24v24H0z" fill="none"/>
        </symbol>
        <symbol id="icon-pictures" viewBox="0 0 1024 1024">
            <title>Pictures</title>
            <path class="path1"
                  d="M86 256h84v598h598v84h-598q-34 0-59-25t-25-59v-598zM470 512l-128 170h512l-172-212-126 158zM938 682q0 34-25 60t-59 26h-512q-34 0-60-26t-26-60v-512q0-34 26-59t60-25h512q34 0 59 25t25 59v512z"/>
        </symbol>
        <symbol id="icon-collections" viewBox="0 0 1024 1024">
            <title>Collections</title>
            <path class="path1"
                  d="M512 736l-264 160 70-300-232-202 306-26 120-282 120 282 306 26-232 202 70 300z"/>
        </symbol>
        <symbol id="icon-comment" viewBox="0 0 1024 1024">
            <title>Comment</title>
            <path class="path1"
                  d="M768 342v-86h-512v86h512zM768 470v-86h-512v86h512zM768 598v-86h-512v86h512zM938 170v768l-170-170h-598q-34 0-59-26t-25-60v-512q0-34 25-59t59-25h684q34 0 59 25t25 59z"/>
        </symbol>
        <symbol id="icon-filter" viewBox="0 0 1024 1024">
            <title>Filter</title>
            <path class="path1"
                  d="M256 554v-84h512v84h-512zM128 256h768v86h-768v-86zM426 768v-86h172v86h-172z"/>
        </symbol>
        <symbol id="icon-share" viewBox="0 0 1024 1024">
            <title>Share</title>
            <path class="path1"
                  d="M768 686q52 0 88 37t36 87q0 52-37 89t-87 37-87-37-37-89q0-20 2-28l-302-176q-38 34-88 34-52 0-90-38t-38-90 38-90 90-38q50 0 88 34l300-174q-4-20-4-30 0-52 38-90t90-38 90 38 38 90-38 90-90 38q-48 0-88-36l-300 176q4 20 4 30t-4 30l304 176q36-32 84-32z"/>
        </symbol>
        <symbol id="icon-search" viewBox="0 0 1024 1024">
            <title>Search</title>
            <path class="path1"
                  d="M406 598q80 0 136-56t56-136-56-136-136-56-136 56-56 136 56 136 136 56zM662 598l212 212-64 64-212-212v-34l-12-12q-76 66-180 66-116 0-197-80t-81-196 81-197 197-81 196 81 80 197q0 104-66 180l12 12h34z"/>
        </symbol>
        <symbol id="icon-text" viewBox="0 0 1024 1024">
            <title>Text</title>
            <path class="path1"
                  d="M918 384v128h-128v298h-128v-298h-128v-128h384zM106 170h556v128h-214v512h-128v-512h-214v-128z"/>
        </symbol>
        <symbol id="icon-random" viewBox="0 0 1024 1024">
            <title>Random</title>
            <path class="path1"
                  d="M632 572l134 134 88-88v236h-236l88-88-134-134zM618 170h236v236l-88-88-536 536-60-60 536-536zM452 392l-60 60-222-222 60-60z"/>
        </symbol>
        <symbol id="icon-latest" viewBox="0 0 1024 1024">
            <title>Latest</title>
            <path class="path1"
                  d="M534 298v224l192 114-32 54-224-136v-256h64zM512 854q140 0 241-101t101-241-101-241-241-101-241 101-101 241 101 241 241 101zM512 86q176 0 301 125t125 301-125 301-301 125-301-125-125-301 125-301 301-125z"/>
        </symbol>
        <symbol id="icon-popular" viewBox="0 0 1024 1024">
            <title>Popular</title>
            <path class="path1"
                  d="M500 810q86 0 145-59t59-145q0-88-24-172-62 82-198 110-120 26-120 132 0 56 40 95t98 39zM576 28q128 104 203 253t75 317q0 140-100 240t-242 100-242-100-100-240q0-216 138-380v16q0 66 44 112t110 46q64 0 105-45t41-113q0-40-8-92t-16-82z"/>
        </symbol>
        <symbol id="icon-account" viewBox="0 0 1024 1024">
            <title>Account</title>
            <path class="path1"
                  d="M512 662q62 0 106-44t44-106-44-106-106-44-106 44-44 106 44 106 106 44zM830 554l90 70q14 10 4 28l-86 148q-8 14-26 8l-106-42q-42 30-72 42l-16 112q-4 18-20 18h-172q-16 0-20-18l-16-112q-38-16-72-42l-106 42q-18 6-26-8l-86-148q-10-18 4-28l90-70q-2-14-2-42t2-42l-90-70q-14-10-4-28l86-148q8-14 26-8l106 42q42-30 72-42l16-112q4-18 20-18h172q16 0 20 18l16 112q38 16 72 42l106-42q18-6 26 8l86 148q10 18-4 28l-90 70q2 14 2 42t-2 42z"/>
        </symbol>
        <symbol id="icon-design" viewBox="0 0 1024 1024">
            <title>Design</title>
            <path class="path1"
                  d="M746 512q26 0 45-18t19-46-19-46-45-18-45 18-19 46 19 46 45 18zM618 342q26 0 45-19t19-45-19-45-45-19-45 19-19 45 19 45 45 19zM406 342q26 0 45-19t19-45-19-45-45-19-45 19-19 45 19 45 45 19zM278 512q26 0 45-18t19-46-19-46-45-18-45 18-19 46 19 46 45 18zM512 128q158 0 271 100t113 242q0 88-63 150t-151 62h-74q-28 0-46 19t-18 45q0 22 16 42t16 44q0 28-18 46t-46 18q-160 0-272-112t-112-272 112-272 272-112z"/>
        </symbol>
        <symbol id="icon-shop" viewBox="0 0 1024 1024">
            <title>Shop</title>
            <path class="path1"
                  d="M726 768q34 0 59 26t25 60-25 59-59 25-60-25-26-59 26-60 60-26zM42 86h140l40 84h632q18 0 30 13t12 31q0 10-6 20l-152 276q-24 44-74 44h-318l-38 70-2 6q0 10 10 10h494v86h-512q-34 0-59-26t-25-60q0-20 10-40l58-106-154-324h-86v-84zM298 768q34 0 60 26t26 60-26 59-60 25-59-25-25-59 25-60 59-26z"/>
        </symbol>
        <symbol id="icon-edit" viewBox="0 0 1024 1024">
            <title>Edit</title>
            <path class="path1"
                  d="M884 300l-78 78-160-160 78-78q12-12 30-12t30 12l100 100q12 12 12 30t-12 30zM128 736l472-472 160 160-472 472h-160v-160z"/>
        </symbol>
        <symbol id="icon-birthdays" viewBox="0 0 1024 1024">
            <title>Birthdays</title>
            <path class="path1"
                  d="M768 384q52 0 90 38t38 90v66q0 34-25 59t-59 25-58-24l-92-92-92 92q-24 24-59 24t-59-24l-90-92-92 92q-24 24-58 24t-59-25-25-59v-66q0-52 38-90t90-38h214v-86h84v86h214zM708 682q44 44 104 44 44 0 84-26v196q0 18-12 30t-30 12h-684q-18 0-30-12t-12-30v-196q38 26 84 26 60 0 104-44l46-46 46 46q42 42 104 42t104-42l46-46zM512 256q-34 0-60-26t-26-60q0-22 14-44l72-126 72 126q14 22 14 44 0 34-25 60t-61 26z"/>
        </symbol>
        <symbol id="icon-holidays" viewBox="0 0 1024 1024">
            <title>Holidays</title>
            <path class="path1"
                  d="M810 854v-470h-596v470h596zM810 170q34 0 60 26t26 60v598q0 34-26 59t-60 25h-596q-36 0-61-25t-25-59v-598q0-34 25-60t61-26h42v-84h86v84h340v-84h86v84h42zM726 470v84h-86v-84h86zM554 470v84h-84v-84h84zM384 470v84h-86v-84h86z"/>
        </symbol>
        <symbol id="icon-posts" viewBox="0 0 1024 1024">
            <title>Posts</title>
            <path class="path1"
                  d="M810 298v-84h-426v84h426zM640 640v-86h-256v86h256zM810 470v-86h-426v86h426zM854 86q34 0 59 25t25 59v512q0 34-25 60t-59 26h-512q-34 0-60-26t-26-60v-512q0-34 26-59t60-25h512zM170 256v598h598v84h-598q-34 0-59-25t-25-59v-598h84z"/>
        </symbol>
        <symbol id="icon-selection" viewBox="0 0 1024 1024">
            <title>Selection</title>
            <path class="path1" d="M298 598l214-214 214 214h-428z"/>
        </symbol>
        <symbol id="icon-instagram" viewBox="0 0 878 1024">
            <title>Instagram</title>
            <path class="path1"
                  d="M778.286 814.857v-370.286h-77.143q11.429 36 11.429 74.857 0 72-36.571 132.857t-99.429 96.286-137.143 35.429q-112.571 0-192.571-77.429t-80-187.143q0-38.857 11.429-74.857h-80.571v370.286q0 14.857 10 24.857t24.857 10h610.857q14.286 0 24.571-10t10.286-24.857zM616 510.286q0-70.857-51.714-120.857t-124.857-50q-72.571 0-124.286 50t-51.714 120.857 51.714 120.857 124.286 50q73.143 0 124.857-50t51.714-120.857zM778.286 304.571v-94.286q0-16-11.429-27.714t-28-11.714h-99.429q-16.571 0-28 11.714t-11.429 27.714v94.286q0 16.571 11.429 28t28 11.429h99.429q16.571 0 28-11.429t11.429-28zM877.714 185.714v652.571q0 46.286-33.143 79.429t-79.429 33.143h-652.571q-46.286 0-79.429-33.143t-33.143-79.429v-652.571q0-46.286 33.143-79.429t79.429-33.143h652.571q46.286 0 79.429 33.143t33.143 79.429z"/>
        </symbol>
        <symbol id="icon-twitter" viewBox="0 0 951 1024">
            <title>Twitter</title>
            <path class="path1"
                  d="M925.714 233.143q-38.286 56-92.571 95.429 0.571 8 0.571 24 0 74.286-21.714 148.286t-66 142-105.429 120.286-147.429 83.429-184.571 31.143q-154.857 0-283.429-82.857 20 2.286 44.571 2.286 128.571 0 229.143-78.857-60-1.143-107.429-36.857t-65.143-91.143q18.857 2.857 34.857 2.857 24.571 0 48.571-6.286-64-13.143-106-63.714t-42-117.429v-2.286q38.857 21.714 83.429 23.429-37.714-25.143-60-65.714t-22.286-88q0-50.286 25.143-93.143 69.143 85.143 168.286 136.286t212.286 56.857q-4.571-21.714-4.571-42.286 0-76.571 54-130.571t130.571-54q80 0 134.857 58.286 62.286-12 117.143-44.571-21.143 65.714-81.143 101.714 53.143-5.714 106.286-28.571z"/>
        </symbol>
        <symbol id="icon-pinterest" viewBox="0 0 731 1024">
            <title>Pinterest</title>
            <path class="path1"
                  d="M0 341.143q0-61.714 21.429-116.286t59.143-95.143 86.857-70.286 105.714-44.571 115.429-14.857q90.286 0 168 38t126.286 110.571 48.571 164q0 54.857-10.857 107.429t-34.286 101.143-57.143 85.429-82.857 58.857-108 22q-38.857 0-77.143-18.286t-54.857-50.286q-5.714 22.286-16 64.286t-13.429 54.286-11.714 40.571-14.857 40.571-18.286 35.714-26.286 44.286-35.429 49.429l-8 2.857-5.143-5.714q-8.571-89.714-8.571-107.429 0-52.571 12.286-118t38-164.286 29.714-116q-18.286-37.143-18.286-96.571 0-47.429 29.714-89.143t75.429-41.714q34.857 0 54.286 23.143t19.429 58.571q0 37.714-25.143 109.143t-25.143 106.857q0 36 25.714 59.714t62.286 23.714q31.429 0 58.286-14.286t44.857-38.857 32-54.286 21.714-63.143 11.429-63.429 3.714-56.857q0-98.857-62.571-154t-163.143-55.143q-114.286 0-190.857 74t-76.571 187.714q0 25.143 7.143 48.571t15.429 37.143 15.429 26 7.143 17.429q0 16-8.571 41.714t-21.143 25.714q-1.143 0-9.714-1.714-29.143-8.571-51.714-32t-34.857-54-18.571-61.714-6.286-60.857z"/>
        </symbol>
        <symbol id="icon-facebook" viewBox="0 0 602 1024">
            <title>Facebook</title>
            <path class="path1"
                  d="M548 6.857v150.857h-89.714q-49.143 0-66.286 20.571t-17.143 61.714v108h167.429l-22.286 169.143h-145.143v433.714h-174.857v-433.714h-145.714v-169.143h145.714v-124.571q0-106.286 59.429-164.857t158.286-58.571q84 0 130.286 6.857z"/>
        </symbol>
        <symbol id="icon-googleplus" viewBox="0 0 1317 1024">
            <title>GooglePlus</title>
            <path class="path1"
                  d="M821.143 521.714q0 118.857-49.714 211.714t-141.714 145.143-210.857 52.286q-85.143 0-162.857-33.143t-133.714-89.143-89.143-133.714-33.143-162.857 33.143-162.857 89.143-133.714 133.714-89.143 162.857-33.143q163.429 0 280.571 109.714l-113.714 109.143q-66.857-64.571-166.857-64.571-70.286 0-130 35.429t-94.571 96.286-34.857 132.857 34.857 132.857 94.571 96.286 130 35.429q47.429 0 87.143-13.143t65.429-32.857 44.857-44.857 28-47.429 12.286-42.286h-237.714v-144h395.429q6.857 36 6.857 69.714zM1316.571 452v120h-119.429v119.429h-120v-119.429h-119.429v-120h119.429v-119.429h120v119.429h119.429z"/>
        </symbol>
        <symbol id="icon-linkedin" viewBox="0 0 878 1024">
            <title>LinkedIn</title>
            <path class="path1"
                  d="M199.429 357.143v566.286h-188.571v-566.286h188.571zM211.429 182.286q0.571 41.714-28.857 69.714t-77.429 28h-1.143q-46.857 0-75.429-28t-28.571-69.714q0-42.286 29.429-70t76.857-27.714 76 27.714 29.143 70zM877.714 598.857v324.571h-188v-302.857q0-60-23.143-94t-72.286-34q-36 0-60.286 19.714t-36.286 48.857q-6.286 17.143-6.286 46.286v316h-188q1.143-228 1.143-369.714t-0.571-169.143l-0.571-27.429h188v82.286h-1.143q11.429-18.286 23.429-32t32.286-29.714 49.714-24.857 65.429-8.857q97.714 0 157.143 64.857t59.429 190z"/>
        </symbol>
        <symbol id="icon-quotery" viewBox="0 0 126.5 150">
            <title>Quotery</title>
            <path class="path1"
                  d="M121.8 97.5c3.3-8.5 5-18 5-28.5 0-10.4-1.6-19.9-4.9-28.4 -3.3-8.6-7.8-15.9-13.6-21.9 -5.6-5.9-12.3-10.5-20-13.8C80.5 1.6 72.3 0 63.6 0c-8.4 0-16.5 1.6-24.1 4.8s-14.4 7.8-20.3 13.9C13.3 24.8 8.7 32.1 5.4 40.5c-3.3 8.4-5 17.9-5 28.6 0 9.8 1.6 18.9 4.8 27.5 3.2 8.6 7.6 15.8 13.1 21.8 0.8 0.9 1.8 1.8 2.9 2.8 1 1.1 2.1 2.1 3.2 3.1 1.7 1.5 3.4 3 5.2 4.4 1.8 1.4 3.6 2.7 5.5 3.9 1.9 1.2 3.8 2.4 5.8 3.5 2 1.1 4 2.1 6 3.1 4.1 2 8.3 3.7 12.6 5.2 2.1 0.7 4.3 1.4 6.5 2.1 2.2 0.7 4.4 1.2 6.6 1.6 2.2 0.5 4.4 0.8 6.7 1.1 2.2 0.3 4.5 0.5 6.8 0.6 2.3 0.1 4.5 0.2 6.8 0.1 2.3 0 4.5-0.1 6.7-0.3 2.2-0.2 4.5-0.4 6.7-0.7 1.1-0.1 2.2-0.3 3.3-0.4 0.6-0.1 1.1-0.2 1.6-0.3l0.8-0.1c0.3-0.1 0.6 0 0.8-0.4h0c0 0 0 0 0 0 0 0 0 0 0 0 -0.1-0.1-0.1-0.1-0.2-0.2 -1.2-0.8-2.4-1.8-3.4-2.8 -1.1-1.1-2.2-2.2-3.2-3.5 -1-1.2-2-2.4-2.8-3.7 -0.4-0.6-0.9-1.3-1.3-1.9 -0.4-0.7-0.8-1.3-1.2-2l-1.1-2 -0.9-2.1c-0.3-0.6-0.5-1.3-0.8-1.9 3.6-2.4 7-5.1 10.1-8.3C113.8 113.3 118.5 106.1 121.8 97.5zM98.8 137.9c0.6 0.6 1.2 1.2 1.8 1.7 1.2 1.1 2.5 2.2 3.8 3.2 1.3 1 2.7 1.9 4 2.8 1.2 0.7 2.4 1.4 3.7 1.9 -0.1 0-0.2 0-0.3 0l-0.8 0c-0.6 0-1.1 0-1.6 0 -1.1-0.1-2.2-0.1-3.3-0.2 -2.2-0.2-4.4-0.4-6.5-0.8 -2.2-0.3-4.3-0.7-6.4-1.1 -2.1-0.4-4.2-0.9-6.3-1.4 -2.1-0.5-4.2-1-6.3-1.6 -2.1-0.5-4.2-1.1-6.2-1.6 -0.8-0.2-1.7-0.4-2.5-0.7 -14.9-4.9-31.2-15.5-36.3-23.8 -1-1.2-1.9-2.5-2.7-3.9 -3.5-5.6-6-11.9-7.6-19.1 -1.6-7.2-2.4-15.2-2.4-24.1 0-8 0.8-15.7 2.3-23 1.5-7.3 3.8-13.7 6.9-19.1 3.3-5.7 7.5-10.2 12.7-13.6C49.9 9.9 56.2 8.3 63.6 8.3c6.6 0 12.5 1.5 17.6 4.4 5.1 2.9 9.4 7 12.8 12.3 3.4 5.3 6 11.7 7.7 19.3 1.8 7.5 2.6 15.8 2.6 24.8 0 8.8-0.8 16.7-2.4 23.8 -0.1 0.5-0.2 1-0.4 1.6 -0.6 2-5.4 18.1-14.8 24.1l0.9 2.4c0.3 0.8 0.7 1.6 1 2.4 0.4 0.8 0.7 1.6 1.1 2.3l1.2 2.2c0.4 0.8 0.9 1.4 1.3 2.2 0.5 0.7 0.9 1.4 1.4 2.1l1.5 2 1.6 1.9C97.6 136.7 98.2 137.3 98.8 137.9z"/>
        </symbol>
        <symbol id="icon-reddit" viewBox="0 0 24 24">
            <title>Reddit</title>
            <path d="M22 11.5c0-1.4-1.1-2.5-2.5-2.5-.6 0-1.2.2-1.6.6-1.5-.9-3.3-1.5-5.4-1.6l1.1-4L17 5a2 2 0 0 0 2 2 2 2 0 0 0 2-2 2 2 0 0 0-2-2c-.7 0-1.4.4-1.7 1l-4-1c-.3-.1-.5.1-.6.4L11.5 8c-2 .1-3.9.7-5.4 1.6-.4-.4-1-.6-1.6-.6C3.1 9 2 10.1 2 11.5c0 .9.4 1.6 1.1 2.1l-.1.9c0 3.6 4 6.5 9 6.5s9-2.9 9-6.5l-.1-.9c.7-.5 1.1-1.2 1.1-2.1m-13 .3c.7 0 1.2.6 1.2 1.2s-.5 1.2-1.2 1.2-1.2-.5-1.2-1.2.5-1.2 1.2-1.2m6.8 5.4c-1.8 1.1-5.8 1.1-7.6 0-.2-.2-.3-.5-.1-.7.2-.2.5-.3.7-.1 1.2.9 5.2.9 6.4 0 .2-.2.5-.1.7.1.2.2.1.5-.1.7m-.8-3c-.7 0-1.2-.6-1.2-1.2 0-.7.6-1.2 1.2-1.2.7 0 1.2.6 1.2 1.2 0 .7-.5 1.2-1.2 1.2z"/>
        </symbol>
        <symbol id="icon-sort" viewBox="0 0 24 24">
            <title>Sort</title>
            <path d="M3 18h6v-2H3v2zM3 6v2h18V6H3zm0 7h12v-2H3v2z"/>
            <path d="M0 0h24v24H0z" fill="none"/>
        </symbol>
        <symbol id="icon-display" viewBox="0 0 24 24">
            <title>Display</title>
            <path d="M3 9h4V5H3v4zm0 5h4v-4H3v4zm5 0h4v-4H8v4zm5 0h4v-4h-4v4zM8 9h4V5H8v4zm5-4v4h4V5h-4zm5 9h4v-4h-4v4zM3 19h4v-4H3v4zm5 0h4v-4H8v4zm5 0h4v-4h-4v4zm5 0h4v-4h-4v4zm0-14v4h4V5h-4z"/>
            <path d="M0 0h24v24H0z" fill="none"/>
        </symbol>
        <symbol id="icon-legal" viewBox="0 0 24 24">
            <title>Legal</title>
            <path d="M2.3 20.28l9.6-9.6-1.4-1.42-.72.71a.996.996 0 0 1-1.41 0l-.71-.71a.996.996 0 0 1 0-1.41l5.66-5.66a.996.996 0 0 1 1.41 0l.71.71c.39.39.39 1.02 0 1.41l-.71.69 1.42 1.43a.996.996 0 0 1 1.41 0c.39.39.39 1.03 0 1.42l1.41 1.41.71-.71c.39-.39 1.03-.39 1.42 0l.7.71c.39.39.39 1.03 0 1.42l-5.65 5.65c-.39.39-1.03.39-1.42 0l-.7-.7a.99.99 0 0 1 0-1.42l.7-.71-1.41-1.41-9.61 9.61a.996.996 0 0 1-1.41 0c-.39-.39-.39-1.03 0-1.42M20 19a2 2 0 0 1 2 2v1H12v-1a2 2 0 0 1 2-2h6z"/>
        </symbol>
        <symbol id="icon-site" viewBox="0 0 24 24">
            <title>Website</title>
            <path d="M20 4H4c-1.1 0-1.99.9-1.99 2L2 18c0 1.1.9 2 2 2h16c1.1 0 2-.9 2-2V6c0-1.1-.9-2-2-2zm-5 14H4v-4h11v4zm0-5H4V9h11v4zm5 5h-4V9h4v9z"/>
            <path d="M0 0h24v24H0z" fill="none"/>
        </symbol>
        <symbol id="icon-authors" viewBox="0 0 24 24">
            <title>Authors</title>
            <path d="M6 17.016V18h12v-.984c0-2.016-3.984-3.094-6-3.094S6 15 6 17.016zM15 9c0-1.641-1.359-3-3-3S9 7.359 9 9s1.359 3 3 3 3-1.359 3-3zM3 5.016C3 3.938 3.891 3 5.016 3h13.969c1.078 0 2.016.938 2.016 2.016v13.969c0 1.078-.938 2.016-2.016 2.016H5.016C3.891 21.001 3 20.063 3 18.985V5.016z"/>
        </symbol>
        <symbol id="icon-topics" viewBox="0 0 24 24">
            <title>Topics</title>
            <path d="M9.984 3.984L12 6h8.016c1.078 0 1.969.938 1.969 2.016V18c0 1.078-.891 2.016-1.969 2.016H3.985c-1.078 0-1.969-.938-1.969-2.016V6c0-1.078.891-2.016 1.969-2.016h6z"/>
        </symbol>
        <symbol id="icon-quotes" viewBox="0 0 24 24">
            <title>Quotes</title>
            <path d="M14.016 17.016l1.969-4.031h-3v-6h6v6l-1.969 4.031h-3zm-8.016 0l2.016-4.031h-3v-6h6v6L9 17.016H6z"/>
        </symbol>
        <symbol id="icon-close" viewBox="0 0 24 24">
            <title>Close</title>
            <path d="M19 6.41L17.59 5 12 10.59 6.41 5 5 6.41 10.59 12 5 17.59 6.41 19 12 13.41 17.59 19 19 17.59 13.41 12z"/>
            <path d="M0 0h24v24H0z" fill="none"/>
        </symbol>
        <symbol id="icon-results" viewBox="0 0 24 24">
            <title>All Results</title>
            <path d="M4 14h4v-4H4v4zm0 5h4v-4H4v4zM4 9h4V5H4v4zm5 5h12v-4H9v4zm0 5h12v-4H9v4zM9 5v4h12V5H9z"/>
            <path d="M0 0h24v24H0z" fill="none"/>
        </symbol>
    </defs>
</svg>
